<svg width="16" height="16" viewBox="0 0 16 16" fill="none" xmlns="http://www.w3.org/2000/svg">
<path d="M9.29289 0H4C2.89543 0 2 0.895431 2 2V14C2 15.1046 2.89543 16 4 16H12C13.1046 16 14 15.1046 14 14V4.70711C14 4.44189 13.8946 4.18754 13.7071 4L10 0.292893C9.81246 0.105357 9.55811 0 9.29289 0ZM9.5 3.5V1.5L12.5 4.5H10.5C9.94772 4.5 9.5 4.05228 9.5 3.5ZM6.35355 9.85355C6.15829 10.0488 5.84171 10.0488 5.64645 9.85355C5.45118 9.65829 5.45118 9.34171 5.64645 9.14645L7.64645 7.14645C7.84171 6.95118 8.15829 6.95118 8.35355 7.14645L10.3536 9.14645C10.5488 9.34171 10.5488 9.65829 10.3536 9.85355C10.1583 10.0488 9.84171 10.0488 9.64645 9.85355L8.5 8.70711L8.5 12.5C8.5 12.7761 8.27614 13 8 13C7.72386 13 7.5 12.7761 7.5 12.5V8.70711L6.35355 9.85355Z" fill="#334055"/>
</svg>
