<svg width="16" height="16" viewBox="0 0 16 16" fill="none" xmlns="http://www.w3.org/2000/svg">
<path d="M9.82847 3H13.81C14.986 3 15.9082 4.00984 15.8018 5.18107L15.1654 12.1811C15.0717 13.2112 14.208 14 13.1736 14H2.82647C1.79206 14 0.928332 13.2112 0.834681 12.1811L0.198318 5.18107C0.154262 4.69646 0.286316 4.23948 0.539594 3.87023L0.500038 3C0.500038 1.89543 1.39547 1 2.50004 1H6.17161C6.70204 1 7.21075 1.21071 7.58583 1.58579L8.41425 2.41421C8.78932 2.78929 9.29803 3 9.82847 3ZM1.50651 3.11964C1.71931 3.04231 1.94939 3 2.1901 3H7.58583L6.87872 2.29289C6.69118 2.10536 6.43683 2 6.17161 2H2.50004C1.95406 2 1.51028 2.43755 1.50021 2.98112L1.50651 3.11964Z" fill="#7F8694"/>
</svg>
